<?xml version="1.0" encoding="UTF-8" standalone="no"?>
<!-- Created with Inkscape (http://www.inkscape.org/) -->

<svg
   width="27.260731mm"
   height="21.329388mm"
   viewBox="0 0 27.260731 21.329388"
   version="1.1"
   id="svg1"
   xml:space="preserve"
   xmlns="http://www.w3.org/2000/svg"
   xmlns:svg="http://www.w3.org/2000/svg"><defs
     id="defs1"><style
       id="style1">.cls-1{fill:#fff;}</style></defs><g
     id="layer2"
     style="display:inline"
     transform="translate(-93.320931,0.28251989)"><g
       id="g19"
       transform="matrix(0.68341494,0,0,0.68341494,29.749499,0.07261043)"><path
         style="fill:#000000;stroke-width:0.291703"
         d="m 93.020263,25.921468 0.231504,-11.749948 2.061715,-6.9775338 3.372746,-5.0367165 8.129492,-2.67691056 12.70989,0.0399983 7.95293,2.72816916 5.20509,11.9545734 0.22562,10.948278 -5.14826,3.270721 -9.08763,2.08086 -1.23729,-2.847753 -9.07613,-0.0557 -1.22171,3.090864 z"
         id="path19" /><path
         id="Discord-Symbol-White"
         class="cls-1"
         d="m 117.6156,2.2072325 c -0.32744,0.581369 -0.62147,1.182794 -0.88876,1.79758 -2.53934,-0.380895 -5.12545,-0.380895 -7.67146,0 -0.26061,-0.614786 -0.56134,-1.216211 -0.88876,-1.79758 -2.38564,0.407644 -4.71114,1.122654 -6.91634,2.131695 -4.370344,6.4753075 -5.553134,12.7835295 -4.965074,19.0048895 2.55937,1.891135 5.426164,3.334543 8.480034,4.256722 0.68829,-0.922179 1.29641,-1.904497 1.81764,-2.9269 -0.98902,-0.367533 -1.94461,-0.828622 -2.8601,-1.363213 0.24056,-0.173752 0.47445,-0.354171 0.70165,-0.527923 5.36602,2.525977 11.58071,2.525977 16.95339,0 0.2272,0.187113 0.46109,0.367533 0.70165,0.527923 -0.91549,0.541258 -1.87108,0.99568 -2.86676,1.369907 0.52123,1.022403 1.12932,2.004721 1.81763,2.9269 3.0538,-0.922179 5.92056,-2.358919 8.48014,-4.250029 0.69479,-7.217066 -1.18957,-13.4718425 -4.97867,-19.0115825 -2.19839,-1.009041 -4.5239,-1.724078 -6.90954,-2.125027 z M 107.3313,19.514793 c -1.65055,0 -3.02045,-1.49688 -3.02045,-3.347905 0,-1.851025 1.31643,-3.354599 3.01379,-3.354599 1.69735,0 3.04718,1.510241 3.02045,3.354599 -0.0267,1.844357 -1.32979,3.347905 -3.01379,3.347905 z m 11.13298,0 c -1.65727,0 -3.01379,-1.49688 -3.01379,-3.347905 0,-1.851025 1.31644,-3.354599 3.01379,-3.354599 1.69736,0 3.04051,1.510241 3.01377,3.354599 -0.0267,1.844357 -1.3298,3.347905 -3.01377,3.347905 z"
         style="display:inline;stroke-width:0.264583" /></g></g></svg>
