<svg xmlns="http://www.w3.org/2000/svg" xml:space="preserve" viewBox="0 0 17.614 20.053"><g style="display:inline"><path d="m140.843 178.983 4.2 1.118 2.473-2.405-.915-3.523 4.336-2.066 2.168-4.607-1.762-4.81-7.926-2.642-7.926 4.844 1.05 5.928 2.54.135 1.423 3.93z" style="display:inline;fill:#000;fill-opacity:1;stroke-width:.264583" transform="translate(-135.49 -160.048)"/><path d="m141.59 176.344.491-1.186 2.072-.467 1.221 1.138-.155 1.15-1.976.838z" style="display:inline;fill:#fff;fill-opacity:1;stroke-width:.264583" transform="translate(-135.49 -160.048)"/><path d="m142.392 173.601 3.018-.886.096-.802 4.11-1.16 2.405-3.964-1.355-2.879-7.114-2.913-5.995 3.828 1.084 2.811 2.337.237-.44-1.761 3.963-1.728 2.405 1.253.813 2.914-5.894 2.54z" style="fill:#fff;fill-opacity:1;stroke-width:.264583" transform="translate(-135.49 -160.048)"/></g></svg>