<svg xmlns="http://www.w3.org/2000/svg" xml:space="preserve" viewBox="0 0 27.017 20.263"><g style="display:inline"><path d="m86.657 180.212 25.532-.862-1.772-4.072-1.246-1.246.719-2.155.958.048 1.677-1.964-10.635-9.437-2.778-.575-3.114 2.156v-1.438l-6.275-.047.622 5.03-4.838 3.592 3.45 3.64.335 1.773-3.21.815z" style="display:inline;fill:#000;fill-opacity:1;stroke-width:.264583" transform="translate(-85.507 -159.949)"/><path d="m88.765 177.481 21.077-.095-2.347-2.875.479-3.88-7.473-5.413-8.527 6.036.431 2.395 5.27.096-.24-3.545 3.976-1.676 1.341 2.395-.383 2.73 3.353.91-16.143 1.581z" style="display:inline;fill:#fff;fill-opacity:1;stroke-width:.264583" transform="translate(-85.507 -159.949)"/><path d="m88.669 168.62 1.676 1.58 9.916-6.802 8.767 6.18 2.06-.048-11.497-8.431-5.078 3.449-.16-1.586.677-.34-.322-1.15-3.624.253.288 1.474 1.575.034-.881.88.322 1.61z" style="display:inline;fill:#fff;fill-opacity:1;stroke-width:.264583" transform="translate(-85.507 -159.949)"/></g></svg>